# xmcd
#
# Track frame offsets:
#	150
#	24156
#	60787
#	77129
#	98890
#	128740
#	156328
#	183894
#	213217
#	241316
#	266139
#
# Disc length: 3900 seconds
#
# Revision: 1
# Processed by: cddbd v1.5.1PL0 Copyright (c) Steve Scherf et al.
# Submitted via: audiograbber 1.83.01
#
DISCID=840f3a0b
DTITLE=Various Artist - VA - Naim Label Sampler - Sounds of Joy
DYEAR=2005
DGENRE=Jazz
TTITLE0=Antonio Forcione - Tears of Joy 
TTITLE1=Laurence Hobgood Trio - Prayer for the Enemy 
TTITLE2=Antonio Forcione - Touch Wood 
TTITLE3=Fred Simon Trio - Folksongs of the Cold War 
TTITLE4=Antonio Forcione - Alhambra 
TTITLE5=Charlie Haden and John Taylor - Windfall 
TTITLE6=Antonio Forcione - I heard it Though the Grapevine 
TTITLE7=Reuben Hoch Trio - Turnaround 
TTITLE8=Antonio Forcione - Twilight 
TTITLE9=Giorgio Serci - Deja Vu 
TTITLE10=Antonio Forcione and Sabina Sciubba - Visions 
EXTD=YEAR: 2005
EXTT0=
EXTT1=
EXTT2=
EXTT3=
EXTT4=
EXTT5=
EXTT6=
EXTT7=
EXTT8=
EXTT9=
EXTT10=
PLAYORDER=
